<?xml version="1.0" encoding="utf-8"?>
<!-- Generator: Adobe Illustrator 27.5.0, SVG Export Plug-In . SVG Version: 6.00 Build 0)  -->
<svg version="1.1" id="Layer_1" xmlns="http://www.w3.org/2000/svg" xmlns:xlink="http://www.w3.org/1999/xlink" x="0px" y="0px"
	 viewBox="0 0 512 512" style="enable-background:new 0 0 512 512;" xml:space="preserve">
<g>
	<path d="M400,64c-44.18,0-80,35.82-80,80c0,8.84-7.16,16-16,16s-16-7.16-16-16c0-61.86,50.14-112,112-112s112,50.14,112,112
		s-50.14,112-112,112H16c-8.84,0-16-7.16-16-16s7.16-16,16-16h384c44.18,0,80-35.82,80-80S444.18,64,400,64z M176,96
		c-17.67,0-32,14.33-32,32c0,8.84-7.16,16-16,16s-16-7.16-16-16c0-35.35,28.65-64,64-64s64,28.65,64,64s-28.65,64-64,64H16
		c-8.84,0-16-7.16-16-16s7.16-16,16-16h160c17.67,0,32-14.33,32-32S193.67,96,176,96z M0,304c0-8.84,7.16-16,16-16h321.34
		c53.02,0,96,42.98,96,96s-42.98,96-96,96s-96-42.98-96-96c0-8.84,7.16-16,16-16c8.84,0,16,7.16,16,16c0,35.35,28.65,64,64,64
		s64-28.65,64-64s-28.65-64-64-64H16C7.16,320,0,312.84,0,304z"/>
</g>
</svg>
